<svg width="120" height="117" xmlns="http://www.w3.org/2000/svg" xmlns:xlink="http://www.w3.org/1999/xlink" overflow="hidden"><defs><clipPath id="clip0"><rect x="777" y="228" width="120" height="117"/></clipPath><clipPath id="clip1"><rect x="778" y="229" width="119" height="116"/></clipPath><clipPath id="clip2"><rect x="778" y="229" width="119" height="116"/></clipPath><clipPath id="clip3"><rect x="778" y="229" width="119" height="116"/></clipPath></defs><g clip-path="url(#clip0)" transform="translate(-777 -228)"><g clip-path="url(#clip1)"><g clip-path="url(#clip2)"><g clip-path="url(#clip3)"><path d="M20.9287 0 97.2408 0C108.804 0 118.169 9.36566 118.169 20.9287L118.169 94.2753C118.169 105.838 108.804 115.204 97.2408 115.204L20.9287 115.204C9.36566 115.204 0 105.838 0 94.2753L0 20.9287C0 9.36566 9.36566 0 20.9287 0Z" fill="#FA0F00" fill-rule="nonzero" fill-opacity="1" transform="matrix(1.00721 0 0 1 778 229.398)"/><path d="M91.8859 86.6164 77.8481 86.6164C76.6107 86.6377 75.4586 85.9124 74.968 84.7603L59.7354 49.1537C59.6288 48.791 59.2661 48.599 58.9034 48.6844 58.6901 48.7484 58.5194 48.9191 58.4554 49.1324L48.9617 71.7465C48.791 72.1519 48.9831 72.6212 49.3884 72.7919 49.4951 72.8346 49.6017 72.8559 49.7084 72.8559L60.1408 72.8559C60.7808 72.8559 61.3782 73.2399 61.6128 73.8373L66.1783 84.0136C66.5837 84.9737 66.1357 86.0617 65.1756 86.467 64.9409 86.5737 64.6849 86.6164 64.4503 86.6164L26.4543 86.6164C25.4942 86.6164 24.7262 85.827 24.7262 84.867 24.7262 84.6323 24.7689 84.3976 24.8755 84.1843L49.0471 26.6249C49.5591 25.3876 50.7751 24.5769 52.1192 24.5769L66.0503 24.5769C67.3944 24.5555 68.6104 25.3662 69.1224 26.6249L93.4433 84.2056C93.8273 85.0803 93.422 86.1044 92.5259 86.4884 92.3339 86.5737 92.0992 86.6164 91.8859 86.6164Z" fill="#FFFFFF" fill-rule="nonzero" fill-opacity="1" transform="matrix(1.00721 0 0 1 778 229.398)"/></g></g></g></g></svg>